<?xml version="1.0" encoding="utf-8"?>
<!-- Svg Vector Icons : http://www.onlinewebfonts.com/icon -->
<!DOCTYPE svg PUBLIC "-//W3C//DTD SVG 1.1//EN" "http://www.w3.org/Graphics/SVG/1.1/DTD/svg11.dtd">
<svg version="1.1" xmlns="http://www.w3.org/2000/svg" xmlns:xlink="http://www.w3.org/1999/xlink" x="0px" y="0px" viewBox="0 0 1000 1000" enable-background="new 0 0 1000 1000" xml:space="preserve">
<metadata> Svg Vector Icons : http://www.onlinewebfonts.com/icon </metadata>
<g><g transform="translate(0.000000,302.000000) scale(0.100000,-0.100000)">
<path fill="#333333" d="M2655.7,190.9C1401.8-191.9,331.6-519.3,276.1-536.5C167-571,100-645.6,100-733.7c0-65.1,55.5-149.3,112.9-176.1c26.8-13.4,1104.6-436.5,2393-940c1407.1-551.3,2366.2-917,2402.5-915.1c76.6,1.9,3442,1320.9,3453.5,1353.5c13.4,44-122.5,153.1-222.1,174.2c-51.7,9.6-804,111-1671.2,222.1c-1072,139.7-1598.5,214.4-1644.4,235.5c-90,44-128.3,147.4-88.1,243.1c32.5,78.5,86.1,109.1,191.4,109.1c99.5,0,3187.4-400.1,3304.2-428.8c201-49.8,356.1-158.9,444.1-315.9c30.6-55.5,65.1-101.5,74.6-101.5c17.2,0,742.8,279.5,899.8,346.5c206.8,90,197.2,319.7-15.3,386.7c-603,195.3-4707.4,1430-4747.6,1428.1C4958.6,885.8,3909.6,573.8,2655.7,190.9z"/>
<path fill="#333333" d="M8647.6-1357.8c-147.4-59.3-153.2-63.2-145.5-116.8c3.8-32.5,9.6-463.3,15.3-959.1l7.6-899.7l-74.6-78.5c-86.1-90-130.2-218.2-111-325.4c23-128.2,105.3-380.9,243.1-748.5c74.7-195.3,135.9-359.9,139.8-361.8c9.6-9.6,229.7,576.2,304.4,807.9c90,281.4,103.4,388.6,63.2,497.7c-19.1,45.9-63.2,111-99.5,141.7l-65.1,57.4v838.5c0,478.6-9.6,892.1-19.1,962.9c-26.8,162.7-55.5,248.9-82.3,247C8810.3-1294.6,8731.9-1323.3,8647.6-1357.8z"/>
<path fill="#333333" d="M2052.7-2560c0-652.8,11.5-781.1,78.5-924.6c59.4-128.3,296.7-363.7,470.9-465.2C3166.8-4281,4005.3-4459,5000.8-4459c685.3,0,1206,68.9,1732.5,227.8c442.2,134,729.4,287.1,949.5,507.3c160.8,160.8,224,271.8,248.9,449.9c23,155.1,23,1311.3,0,1311.3c-9.6,0-633.6-241.2-1386-536c-754.3-294.8-1409-543.7-1456.8-555.2c-59.3-13.4-116.8-13.4-176.1,0c-47.9,11.5-702.6,260.4-1456.8,555.2c-752.3,294.8-1376.4,536-1386,536C2060.3-1962.7,2052.7-2213.5,2052.7-2560z"/></g></g>
</svg>