<?xml version="1.0" encoding="utf-8"?>
<!-- Svg Vector Icons : http://www.onlinewebfonts.com/icon -->
<!DOCTYPE svg PUBLIC "-//W3C//DTD SVG 1.1//EN" "http://www.w3.org/Graphics/SVG/1.1/DTD/svg11.dtd">
<svg version="1.1" xmlns="http://www.w3.org/2000/svg" xmlns:xlink="http://www.w3.org/1999/xlink" x="0px" y="0px" viewBox="0 0 1000 1000" enable-background="new 0 0 1000 1000" xml:space="preserve">
<metadata> Svg Vector Icons : http://www.onlinewebfonts.com/icon </metadata>
<g><path fill="#333333" d="M360,220h280v-70H360L360,220L360,220z M990,570v262.5c0,24.1-8.6,44.7-25.7,61.8c-17.1,17.1-37.7,25.7-61.8,25.7h-805c-24.1,0-44.7-8.6-61.8-25.7S10,856.6,10,832.5V570h367.5v87.5c0,9.5,3.5,17.7,10.4,24.6s15.1,10.4,24.6,10.4h175c9.5,0,17.7-3.5,24.6-10.4c6.9-6.9,10.4-15.1,10.4-24.6V570H990z M570,570v70H430v-70H570z M990,307.5v210H10v-210c0-24.1,8.6-44.7,25.7-61.8C52.8,228.6,73.4,220,97.5,220H290v-87.5c0-14.6,5.1-27,15.3-37.2C315.5,85.1,327.9,80,342.5,80h315c14.6,0,27,5.1,37.2,15.3c10.2,10.2,15.3,22.6,15.3,37.2V220h192.5c24.1,0,44.7,8.6,61.8,25.7C981.4,262.8,990,283.4,990,307.5z"/></g>
</svg>