<svg width="36" height="36" viewBox="0 0 36 36" fill="none" xmlns="http://www.w3.org/2000/svg">
<path fill="#DDDDDD" d="M33.1211 0.720001H3.0758C1.43475 0.720001 0 1.8543 0 3.4117V32.3182C0 33.8846 1.43475 35.28 3.0758 35.28H33.1117C34.7621 35.28 36 33.8756 36 32.3182V3.4117C36.0093 1.8543 34.7621 0.720001 33.1211 0.720001ZM11.1591 29.5275H6.00155V14.1335H11.1591V29.5275ZM8.75852 11.7929H8.72101C7.07058 11.7929 6.00155 10.6136 6.00155 9.13718C6.00155 7.63379 7.09871 6.48149 8.78665 6.48149C10.4746 6.48149 11.5061 7.62479 11.5436 9.13718C11.5436 10.6136 10.4746 11.7929 8.75852 11.7929ZM30.0078 29.5275H24.8502V21.1103C24.8502 19.0938 24.1 17.7164 22.2339 17.7164C20.8085 17.7164 19.9645 18.6436 19.5894 19.5439C19.4488 19.868 19.4113 20.3091 19.4113 20.7592V29.5275H14.2537V14.1335H19.4113V16.276C20.1615 15.2498 21.3337 13.7734 24.0625 13.7734C27.4477 13.7734 30.0078 15.9159 30.0078 20.5341V29.5275Z"/>
</svg>
