<?xml version="1.0" encoding="utf-8"?>
<!-- Svg Vector Icons : http://www.onlinewebfonts.com/icon -->
<!DOCTYPE svg PUBLIC "-//W3C//DTD SVG 1.1//EN" "http://www.w3.org/Graphics/SVG/1.1/DTD/svg11.dtd">
<svg version="1.1" xmlns="http://www.w3.org/2000/svg" xmlns:xlink="http://www.w3.org/1999/xlink" x="0px" y="0px" viewBox="0 0 1300 1300" enable-background="new 0 0 1300 1300" xml:space="preserve">
<metadata> Svg Vector Icons : http://www.onlinewebfonts.com/icon </metadata>
<g><path fill="#333333" d="M510 370H790V300H510V370ZM1140 720V982.5C1140 1006.6 1131.4 1027.2 1114.3 1044.3C1097.2 1061.4 1076.6 1070 1052.5 1070H247.5C223.4 1070 202.8 1061.4 185.7 1044.3C168.6 1027.2 160 1006.6 160 982.5V720H527.5V807.5C527.5 817 531 825.2 537.9 832.1C544.8 839 553 842.5 562.5 842.5H737.5C747 842.5 755.2 839 762.1 832.1C769 825.2 772.5 817 772.5 807.5V720H1140ZM720 720V790H580V720H720ZM1140 457.5V667.5H160V457.5C160 433.4 168.6 412.8 185.7 395.7C202.8 378.6 223.4 370 247.5 370H440V282.5C440 267.9 445.1 255.5 455.3 245.3C465.5 235.1 477.9 230 492.5 230H807.5C822.1 230 834.5 235.1 844.7 245.3C854.9 255.5 860 267.9 860 282.5V370H1052.5C1076.6 370 1097.2 378.6 1114.3 395.7C1131.4 412.8 1140 433.4 1140 457.5Z"/></g>
</svg>